<svg xmlns="http://www.w3.org/2000/svg" xmlns:xlink="http://www.w3.org/1999/xlink" width="480" height="83.128" version="1.1" viewBox="0 0 13023 2255" xml:space="preserve" style="shape-rendering:geometricPrecision;text-rendering:geometricPrecision;image-rendering:optimizeQuality;fill-rule:evenodd;clip-rule:evenodd"><defs><style type="text/css">.fil0{fill:#fefefe;fill-rule:nonzero}</style></defs><g id="Layer_x0020_1"><metadata id="CorelCorpID_0Corel-Layer"/><g id="_2218780718672"><path d="M1160 949c-132,-141 -340,-188 -527,-188 -299,0 -598,147 -598,480 0,543 741,349 741,578 0,76 -99,102 -199,102 -132,0 -228,-55 -310,-155l-267 296c141,144 360,193 560,193 304,0 656,-105 656,-468 0,-543 -741,-364 -741,-575 0,-85 88,-117 161,-117 105,0 190,41 255,120l269 -266zm1535 3c-137,-141 -339,-191 -506,-191 -440,0 -791,293 -791,747 0,454 351,747 791,747 167,0 369,-49 506,-190l-290 -305c-49,59 -120,109 -216,109 -220,0 -352,-147 -352,-361 0,-214 132,-360 352,-360 90,0 172,47 216,108l290 -304zm1052 1268l404 0 0 -723c0,-475 -137,-736 -650,-736 -231,0 -466,76 -627,229l234 240c94,-106 214,-170 358,-170 152,0 281,100 281,255 -366,0 -964,9 -964,501 0,287 241,439 507,439 179,0 355,-61 451,-213l6 0 0 178zm0 -624l0 94c0,176 -161,267 -334,267 -96,0 -208,-50 -208,-156 0,-193 299,-205 434,-205l108 0zm686 624l439 0 0 -2215 -439 0 0 2215zm1796 -471c-74,99 -170,172 -314,172 -170,0 -296,-108 -331,-275l1020 0 0 -138c0,-454 -258,-747 -668,-747 -440,0 -791,293 -791,747 0,454 351,747 791,747 228,0 460,-102 600,-281l-307 -225zm-645 -402c12,-138 117,-269 311,-269 158,0 272,123 269,269l-580 0zm1286 873l440 0 0 -595c0,-284 41,-477 375,-477 64,0 126,12 187,29l0 -401c-41,-12 -96,-15 -146,-15 -194,0 -317,91 -410,264l-6 0 0 -229 -440 0 0 1424zm2180 -471c-73,99 -170,172 -313,172 -170,0 -296,-108 -331,-275l1019 0 0 -138c0,-454 -258,-747 -668,-747 -439,0 -791,293 -791,747 0,454 352,747 791,747 229,0 460,-102 601,-281l-308 -225zm-644 -402c11,-138 117,-269 310,-269 158,0 273,123 270,269l-580 0zm2179 873l405 0 0 -723c0,-475 -138,-736 -651,-736 -231,0 -466,76 -627,229l235 240c93,-106 213,-170 357,-170 152,0 281,100 281,255 -366,0 -964,9 -964,501 0,287 241,439 507,439 179,0 355,-61 451,-213l6 0 0 178zm0 -624l0 94c0,176 -161,267 -334,267 -96,0 -208,-50 -208,-156 0,-193 299,-205 434,-205l108 0zm686 624l439 0 0 -2215 -439 0 0 2215z" class="fil0"/><path d="M12268 475l0 -395 -141 0 0 -80 377 0 0 80 -140 0 0 395 -96 0zm297 0l0 -475 144 0 85 324 85 -324 144 0 0 475 -89 0 0 -374 -94 374 -92 0 -94 -374 0 374 -89 0z" class="fil0"/></g></g></svg>